HIERARCHY
ROOT Hips
{
	OFFSET 0.000000 0.000000 0.000000
	CHANNELS 6 Xposition Yposition Zposition Zrotation Yrotation Xrotation 
	JOINT LHipJoint
	{
		OFFSET 0.000000 0.000000 0.000000
		CHANNELS 3 Zrotation Yrotation Xrotation
		JOINT LeftUpLeg
		{
			OFFSET 1.363060 -1.794630 0.839290
			CHANNELS 3 Zrotation Yrotation Xrotation
			JOINT LeftLeg
			{
				OFFSET 2.448110 -6.726130 0.000000
				CHANNELS 3 Zrotation Yrotation Xrotation
				JOINT LeftFoot
				{
					OFFSET 2.562200 -7.039590 0.000000
					CHANNELS 3 Zrotation Yrotation Xrotation
					JOINT LeftToeBase
					{
						OFFSET 0.157640 -0.433110 2.322550
						CHANNELS 3 Zrotation Yrotation Xrotation
						End Site
						{
							OFFSET 0.000000 0.000000 0.000000
						}
					}
				}
			}
		}
	}
	JOINT RHipJoint
	{
		OFFSET 0.000000 0.000000 0.000000
		CHANNELS 3 Zrotation Yrotation Xrotation
		JOINT RightUpLeg
		{
			OFFSET -1.305520 -1.794630 0.839290
			CHANNELS 3 Zrotation Yrotation Xrotation
			JOINT RightLeg
			{
				OFFSET -2.542530 -6.985550 0.000000
				CHANNELS 3 Zrotation Yrotation Xrotation
				JOINT RightFoot
				{
					OFFSET -2.568260 -7.056230 0.000000
					CHANNELS 3 Zrotation Yrotation Xrotation
					JOINT RightToeBase
					{
						OFFSET -0.164730 -0.452590 2.363150
						CHANNELS 3 Zrotation Yrotation Xrotation
						End Site
						{
							OFFSET 0.000000 0.000000 0.000000
						}
					}
				}
			}
		}
	}
}
MOTION
Frames: 24
Frame Time: 0.008333
6.366532 21.863861 1.052102 26.499357 -67.490607 8.625751 -7.821632 -0.581792 4.128408 -13.992810 -4.763267 -105.306564 0.596083 7.990333 74.468675 3.207096 12.374862 -11.653806 0.041900 0.000000 -35.378100 13.735453 0.857304 -3.903868 -24.684461 -16.525712 -32.192212 -8.877864 -9.301214 114.842042 -2.969612 -16.323747 -17.753659 2.227500 0.000000 -58.722900
6.237870 21.888160 1.079034 25.535416 -67.618029 10.929777 -7.832103 -0.534338 4.492853 -13.915937 -5.926238 -111.775885 0.593833 8.630245 75.384895 3.191400 11.552004 -12.979794 -0.195400 0.000000 -34.943200 13.583933 1.114152 -3.942460 -27.178992 -16.214240 -33.188369 -10.147245 -9.905161 118.673461 -3.184616 -17.219463 -20.025394 2.948600 0.000000 -55.903200
6.100669 21.900528 1.112969 24.245511 -67.702613 13.484344 -7.924228 -0.397777 4.835506 -13.692081 -7.199653 -118.083283 0.553596 9.274031 76.074561 3.117101 10.537502 -14.072798 -0.360200 -0.000000 -35.069100 13.379623 1.302001 -3.942360 -29.617352 -15.785196 -33.780297 -11.331797 -10.423436 121.805035 -3.370897 -17.884026 -21.924929 3.592500 0.000000 -53.016400
5.955114 21.902982 1.153055 22.626022 -67.727057 16.244844 -8.106147 -0.163612 5.130358 -13.363537 -8.586506 -124.117656 0.474751 9.913641 76.543092 2.980388 9.368642 -14.844038 -0.436500 -0.000000 -35.827799 13.127322 1.398303 -3.928576 -31.875923 -15.218155 -33.960651 -12.363147 -10.844935 124.246535 -3.507029 -18.260271 -23.467172 4.113900 0.000000 -50.159800
5.801943 21.897746 1.197902 20.724815 -67.676648 19.119801 -8.378626 0.170583 5.354643 -12.992214 -10.105460 -129.759882 0.358173 10.539662 76.800861 2.784453 8.102336 -15.236912 -0.425899 0.000000 -37.190099 12.833454 1.388698 -3.924073 -33.833006 -14.501770 -33.761574 -13.185690 -11.164312 126.029761 -3.578654 -18.323487 -24.680698 4.483601 0.000000 -47.525000
5.641803 21.887051 1.245608 18.643264 -67.535014 21.980161 -8.732086 0.600179 5.491514 -12.646656 -11.791992 -134.894775 0.205285 11.142332 76.862419 2.539042 6.804508 -15.235299 -0.345699 -0.000000 -39.061899 12.506294 1.269290 -3.945464 -35.391119 -13.646538 -33.240376 -13.763521 -11.382021 127.201422 -3.580563 -18.085205 -25.599575 4.692300 0.000000 -45.363900
5.475830 21.872061 1.293704 16.500317 -67.290718 24.687073 -9.145946 1.111653 5.530409 -12.393742 -13.673685 -139.415242 0.018756 11.711319 76.748805 2.257822 5.537575 -14.860556 -0.221600 -0.000001 -41.312400 12.156999 1.046559 -3.999479 -36.487566 -12.681021 -32.469427 -14.086682 -11.502732 127.827897 -3.516795 -17.588451 -26.264281 4.751500 -0.000001 -43.869000
5.304843 21.854226 1.339084 14.430134 -66.936261 27.102995 -9.588495 1.685309 5.467741 -12.300251 -15.759966 -143.224010 -0.197833 12.235091 76.484597 1.955514 4.350530 -14.161625 -0.079900 -0.000000 -43.802300 11.802138 0.736807 -4.082623 -37.112798 -11.651293 -31.516688 -14.167460 -11.536092 127.979054 -3.397816 -16.893589 -26.717321 4.687200 0.000000 -43.169801
5.129793 21.833633 1.379014 12.516314 -66.482374 29.152090 -10.027925 2.294588 5.311061 -12.407211 -18.014397 -146.268990 -0.436190 12.701389 76.101869 1.645425 3.273048 -13.202831 0.058700 -0.000000 -46.389000 11.458525 0.364593 -4.185614 -37.285934 -10.602966 -30.454097 -14.033817 -11.492574 127.729053 -3.239392 -16.073713 -27.009212 4.536300 -0.000000 -43.206100
4.951369 21.810398 1.410809 10.819046 -65.949022 30.793239 -10.433342 2.908371 5.077351 -12.743161 -20.361836 -148.527835 -0.684734 13.095997 75.632186 1.337869 2.315157 -12.051592 0.180000 0.000000 -48.928500 11.143517 -0.039672 -4.296270 -37.066755 -9.582693 -29.344567 -13.724780 -11.385950 127.147246 -3.059296 -15.204026 -27.182971 4.335700 0.000000 -43.841700
4.769813 21.784225 1.432169 9.389657 -65.359404 32.007847 -10.777646 3.494884 4.792820 -13.320902 -22.704311 -150.011298 -0.929893 13.405068 75.104372 1.040217 1.470852 -10.774013 0.275899 0.000000 -51.250600 10.873439 -0.442476 -4.402919 -36.548197 -8.641501 -28.241016 -13.283300 -11.233505 126.292249 -2.875837 -14.358715 -27.279056 4.120900 -0.000000 -44.805900
4.585665 21.754406 1.442205 8.185927 -64.768538 32.871363 -11.051352 4.010402 4.491566 -14.093191 -24.875584 -150.804877 -1.154249 13.619177 74.542256 0.754514 0.719059 -9.407525 0.343700 -0.000001 -53.355300 10.655000 -0.813553 -4.495594 -35.800029 -7.789203 -27.220722 -12.747676 -11.044971 125.217684 -2.708263 -13.622307 -27.313230 3.922799 0.000000 -45.947200
4.398633 21.720538 1.440725 7.235664 -64.200187 33.400313 -11.242265 4.427774 4.207456 -15.012052 -26.768129 -150.992760 -1.345678 13.734669 73.965695 0.483631 0.037978 -8.001086 0.380800 0.000001 -55.086600 10.495127 -1.123801 -4.567910 -34.929942 -7.072689 -26.326628 -12.151646 -10.836003 123.956399 -2.572364 -13.063333 -27.310838 3.769200 0.000000 -46.884100
4.208543 21.681999 1.428655 6.508392 -63.697670 33.665811 -11.351244 4.717999 3.970124 -15.982057 -28.252345 -150.704356 -1.494779 13.756153 73.385647 0.227825 -0.594779 -6.575807 0.386800 -0.000001 -56.495500 10.393192 -1.353795 -4.613654 -34.009277 -6.497004 -25.616368 -11.518756 -10.612913 122.532047 -2.481152 -12.745737 -27.276359 3.680600 -0.000000 -47.455300
4.015363 21.638445 1.407732 5.977983 -63.293759 33.724981 -11.382515 4.863960 3.799344 -16.902289 -29.239158 -150.060853 -1.597412 13.692731 72.807527 -0.011618 -1.193697 -5.149534 0.361700 0.000000 -57.650600 10.344605 -1.491876 -4.628054 -33.098033 -6.059837 -25.130541 -10.865015 -10.378926 120.956878 -2.442243 -12.709724 -27.211850 3.670000 0.000000 -47.576800
3.818857 21.589730 1.380044 5.624545 -63.012372 33.625183 -11.343652 4.861575 3.704280 -17.678686 -29.684424 -149.167868 -1.654816 13.556804 72.231323 -0.232404 -1.763862 -3.736806 0.307000 0.000000 -58.650800 10.343130 -1.535505 -4.605817 -32.237535 -5.746272 -24.895005 -10.199724 -10.134764 119.233452 -2.456980 -12.963411 -27.124586 3.741400 0.000000 -47.217799
3.619188 21.535797 1.347880 5.420235 -62.870570 33.408973 -11.245113 4.716093 3.684218 -18.240761 -29.582154 -148.098358 -1.670838 13.359434 71.653109 -0.431068 -2.299767 -2.349161 0.226200 -0.000000 -59.602100 10.380535 -1.489685 -4.541704 -31.449939 -5.526551 -24.920893 -9.527498 -9.879423 117.357899 -2.520548 -13.479943 -27.027030 3.889300 0.000000 -46.386600
3.416592 21.476823 1.313197 5.343634 -62.876105 33.103745 -11.099071 4.442605 3.730796 -18.557510 -28.965947 -146.881377 -1.651481 13.108517 71.063415 -0.603907 -2.789496 -0.995045 0.124500 -0.000000 -60.578600 10.447542 -1.364612 -4.431628 -30.743554 -5.362979 -25.199031 -8.850063 -9.611382 115.319348 -2.622467 -14.198346 -26.931287 4.097900 0.000001 -45.157500
3.211479 21.413003 1.277615 5.372508 -63.030366 32.730439 -10.918286 4.061684 3.829717 -18.635492 -27.895301 -145.510916 -1.603867 12.809566 70.447569 -0.747798 -3.217790 0.326896 0.009200 0.000000 -61.631800 10.534915 -1.174353 -4.272355 -30.115338 -5.211914 -25.707667 -8.168752 -9.329417 113.104619 -2.747983 -15.030402 -26.844788 4.343001 0.000000 -43.638999
3.004559 21.344724 1.242229 5.479502 -63.331838 32.306349 -10.715318 3.596585 3.961828 -18.515157 -26.442916 -143.951587 -1.536205 12.466224 69.784485 -0.860930 -3.571561 1.628229 -0.112800 0.000000 -62.764300 10.632970 -0.934656 -4.062309 -29.554880 -5.027949 -26.414920 -7.485297 -9.032224 110.698575 -2.879964 -15.872352 -26.762558 4.592800 0.000000 -41.990900
2.796698 21.271835 1.207924 5.624159 -63.777975 31.855529 -10.503506 3.070792 4.104071 -18.251146 -24.683086 -142.161530 -1.456761 12.082503 69.049517 -0.942895 -3.841527 2.937115 -0.235700 0.000000 -63.984500 10.729996 -0.661494 -3.802874 -29.041428 -4.768268 -27.283058 -6.801763 -8.717401 108.084961 -3.001420 -16.620074 -26.666067 4.811300 0.000000 -40.389300
2.588518 21.194656 1.174122 5.830560 -64.344915 31.336602 -10.284768 2.512260 4.230813 -17.935602 -22.713471 -140.053401 -1.380289 11.659769 68.195700 -0.995382 -4.028783 4.280954 -0.355900 0.000000 -65.156501 10.822363 -0.368339 -3.498693 -28.586051 -4.420029 -28.245992 -6.124706 -8.387471 105.238694 -3.094848 -17.170047 -26.492262 4.948400 -0.000000 -39.290200
2.381399 21.112809 1.141743 6.011246 -65.039247 30.809789 -10.074852 1.935806 4.316294 -17.601616 -20.572865 -137.618948 -1.313218 11.205415 67.198301 -1.019706 -4.134852 5.706360 -0.472101 -0.000000 -66.352600 10.893551 -0.068308 -3.159489 -28.144886 -3.954775 -29.271267 -5.458164 -8.037944 102.154766 -3.149544 -17.453835 -26.214122 4.974800 0.000000 -38.723701
2.176269 21.026325 1.110042 6.185011 -65.836967 30.232231 -9.872747 1.360207 4.337397 -17.304555 -18.326850 -134.798884 -1.269435 10.721532 66.007336 -1.019027 -4.174699 7.230470 -0.585499 0.000000 -67.359400 10.940599 0.231484 -2.798576 -27.727510 -3.392799 -30.291097 -4.811170 -7.671888 98.812641 -3.155848 -17.418518 -25.744550 4.850400 -0.000000 -39.164801
